<svg xmlns="http://www.w3.org/2000/svg" width="1120" height="280" viewBox="0 0 1120 280" role="img" aria-labelledby="title desc">
  <title id="title">KeyShot MCP workflow</title>
  <desc id="desc">AI prompt goes through MCP, KeyShot headless renders, and output files are returned.</desc>
  <style>
    .bg { fill: #0d1117; }
    .box { fill: #161b22; stroke: #30363d; stroke-width: 1.5; }
    .title { fill: #f0f6fc; font: 700 22px -apple-system, BlinkMacSystemFont, "Segoe UI", sans-serif; }
    .text { fill: #c9d1d9; font: 15px -apple-system, BlinkMacSystemFont, "Segoe UI", sans-serif; }
    .muted { fill: #8b949e; font: 13px -apple-system, BlinkMacSystemFont, "Segoe UI", sans-serif; }
    .arrow { stroke: #58a6ff; stroke-width: 3; fill: none; marker-end: url(#arrow); }
    .num { fill: #58a6ff; font: 700 18px -apple-system, BlinkMacSystemFont, "Segoe UI", sans-serif; }
  </style>
  <defs>
    <marker id="arrow" viewBox="0 0 10 10" refX="9" refY="5" markerWidth="7" markerHeight="7" orient="auto-start-reverse">
      <path d="M 0 0 L 10 5 L 0 10 z" fill="#58a6ff"/>
    </marker>
  </defs>
  <rect class="bg" width="1120" height="280" rx="18"/>
  <text class="title" x="40" y="52">KeyShot MCP Workflow</text>
  <g transform="translate(40 92)">
    <rect class="box" width="190" height="118" rx="12"/>
    <text class="num" x="20" y="36">1</text>
    <text class="text" x="20" y="66">AI Prompt</text>
    <text class="muted" x="20" y="92">Render / inspect / edit</text>
  </g>
  <path class="arrow" d="M 252 151 L 334 151"/>
  <g transform="translate(356 92)">
    <rect class="box" width="190" height="118" rx="12"/>
    <text class="num" x="20" y="36">2</text>
    <text class="text" x="20" y="66">MCP Server</text>
    <text class="muted" x="20" y="92">Structured tool call</text>
  </g>
  <path class="arrow" d="M 568 151 L 650 151"/>
  <g transform="translate(672 92)">
    <rect class="box" width="190" height="118" rx="12"/>
    <text class="num" x="20" y="36">3</text>
    <text class="text" x="20" y="66">KeyShot Headless</text>
    <text class="muted" x="20" y="92">Python lux script</text>
  </g>
  <path class="arrow" d="M 884 151 L 966 151"/>
  <g transform="translate(988 92)">
    <rect class="box" width="110" height="118" rx="12"/>
    <text class="num" x="16" y="36">4</text>
    <text class="text" x="16" y="64">Output</text>
    <text class="muted" x="16" y="88">images</text>
    <text class="muted" x="16" y="106">scenes / JSON</text>
  </g>
</svg>
